<svg width="800" height="320" viewBox="0 0 800 320" fill="none" xmlns="http://www.w3.org/2000/svg">
  <path d="M136 94H326C354 94 376 116 376 144V182C376 210 354 232 326 232H136C108 232 86 210 86 182V144C86 116 108 94 136 94Z" stroke="#111111" stroke-width="18" stroke-linejoin="round"/>
  <path d="M474 94H664C692 94 714 116 714 144V182C714 210 692 232 664 232H474C446 232 424 210 424 182V144C424 116 446 94 474 94Z" stroke="#111111" stroke-width="18" stroke-linejoin="round"/>
  <path d="M376 160H424" stroke="#111111" stroke-width="16" stroke-linecap="round"/>
  <path d="M58 126C76 114 98 108 124 106" stroke="#111111" stroke-width="16" stroke-linecap="round"/>
  <path d="M742 126C724 114 702 108 676 106" stroke="#111111" stroke-width="16" stroke-linecap="round"/>
</svg>